<svg width="452" height="307" viewBox="0 0 452 307" fill="none" class="skills-verification-header-image"><path d="M97.2572 39.7051C115.51 10.1926 152.749 2.98138 158.745 1.77951C181.461 -2.62733 199.514 2.18014 210.706 5.11803C239.751 12.7966 259.736 28.4877 274.658 40.5064C293.644 55.73 289.847 57.5328 302.637 66.5468C334.08 88.8481 356.597 77.831 387.241 91.2519C417.151 104.339 440.401 134.252 448.528 165.367C460.119 209.903 441.933 261.917 405.227 286.222C383.91 300.377 361.993 301.178 334.613 302.246C285.183 304.183 276.59 290.762 233.355 287.557C153.149 281.548 116.976 322.678 56.1546 300.243C46.1621 296.571 34.5707 290.829 24.1785 280.212C-2.20179 253.237 -0.203285 215.979 0.196416 210.771C0.729351 203.092 2.06169 184.13 14.8521 166.702C36.9023 136.589 65.481 148.608 83.4675 123.969C102.986 97.2612 76.7392 72.89 97.2572 39.7051Z" fill="var(--color-shade-light)"></path><path d="M330.579 292.729H139.296C136.994 292.729 135.125 290.861 135.125 288.559V34.6142C135.125 32.3121 136.994 30.4437 139.296 30.4437H330.579C332.881 30.4437 334.75 32.3121 334.75 34.6142V288.555C334.75 290.861 332.885 292.729 330.579 292.729Z" fill="var(--color-shade-medium)"></path><path d="M322.805 31.1485C326.225 31.1485 333.381 29.7431 333.732 34.7143C333.765 35.1772 333.732 35.6568 333.732 36.1239C333.732 39.2434 333.732 42.363 333.732 45.4825C333.732 58.5986 333.732 71.7148 333.732 84.8309C333.732 103.665 333.732 122.499 333.732 141.333C333.732 161.518 333.732 181.703 333.732 201.892C333.732 219.262 333.732 236.628 333.732 253.998C333.732 264.341 333.732 274.688 333.732 285.031C333.732 287.608 334.349 291.808 330.666 292.029C328.026 292.187 325.332 292.029 322.688 292.029C306.982 292.029 291.272 292.029 275.566 292.029C255.748 292.029 235.93 292.029 216.107 292.029C203.638 292.029 191.172 292.029 178.702 292.029C178.081 292.029 177.46 292.029 176.838 292.029C175.716 292.029 175.27 293.43 176.642 293.43C185.884 293.43 195.126 293.43 204.367 293.43C223.814 293.43 243.257 293.43 262.704 293.43C280.466 293.43 298.232 293.43 315.995 293.43C320.374 293.43 324.753 293.43 329.132 293.43C332.656 293.43 335.729 291.774 335.767 287.842C335.846 279.847 335.767 271.844 335.767 263.849C335.767 247.496 335.767 231.144 335.767 214.791C335.767 194.527 335.767 174.267 335.767 154.003C335.767 134.276 335.767 114.546 335.767 94.8192C335.767 80.0724 335.767 65.3256 335.767 50.5788C335.767 46.4542 335.767 42.3254 335.767 38.2008C335.767 35.7319 336.213 32.7 334.107 30.9275C332.514 29.5888 330.566 29.7431 328.623 29.7431C326.75 29.7431 324.873 29.7431 323.001 29.7431C321.883 29.7431 321.437 31.1485 322.805 31.1485Z" fill="#5D7183"></path><path d="M313.53 275.286H122.247C119.945 275.286 118.076 273.417 118.076 271.115V17.1705C118.076 14.8684 119.945 13 122.247 13H313.53C315.832 13 317.7 14.8684 317.7 17.1705V271.111C317.7 273.417 315.836 275.286 313.53 275.286Z" fill="var(--color-white)"></path><path d="M198.408 70.7305C209.476 70.7305 220.545 70.7305 231.613 70.7305C249.163 70.7305 266.716 70.7305 284.265 70.7305C288.294 70.7305 292.327 70.7305 296.356 70.7305C297.532 70.7305 297.882 69.1875 296.514 69.1875C285.446 69.1875 274.377 69.1875 263.309 69.1875C245.759 69.1875 228.206 69.1875 210.657 69.1875C206.628 69.1875 202.595 69.1875 198.566 69.1875C197.394 69.1875 197.044 70.7305 198.408 70.7305Z" fill="#CACEDE"></path><path d="M198.404 87.3374C209.472 87.3374 220.54 87.3374 231.609 87.3374C249.158 87.3374 266.712 87.3374 284.261 87.3374C288.29 87.3374 292.323 87.3374 296.351 87.3374C297.515 87.3374 297.886 85.8235 296.518 85.8235C285.45 85.8235 274.381 85.8235 263.313 85.8235C245.764 85.8235 228.21 85.8235 210.661 85.8235C206.632 85.8235 202.599 85.8235 198.57 85.8235C197.407 85.8235 197.04 87.3374 198.404 87.3374Z" fill="#CACEDE"></path><path d="M162.135 97.6385C172.831 95.0583 179.41 84.296 176.83 73.6002C174.25 62.9043 163.488 56.3252 152.792 58.9054C142.096 61.4856 135.517 72.2479 138.097 82.9438C140.677 93.6396 151.439 100.219 162.135 97.6385Z" fill="#1BA94C"></path><path d="M164.882 72.3823C164.248 71.8264 163.265 71.8825 162.703 72.513L155.793 80.2199L153.591 78.0433C153.047 77.5062 152.159 77.5062 151.615 78.0433L151.408 78.2488C150.864 78.786 150.864 79.6641 151.408 80.2013L154.848 83.6016C155.363 84.1108 156.186 84.1294 156.734 83.6717C156.852 83.597 156.965 83.5129 157.065 83.4055L165.019 74.5309C165.576 73.905 165.515 72.9381 164.882 72.3823Z" fill="white"></path><path d="M198.408 208.344C209.335 208.344 220.261 208.344 231.188 208.344C248.612 208.344 266.032 208.344 283.457 208.344C287.464 208.344 291.476 208.344 295.484 208.344C296.66 208.344 297.011 206.801 295.643 206.801C284.716 206.801 273.789 206.801 262.863 206.801C245.439 206.801 228.018 206.801 210.594 206.801C206.586 206.801 202.574 206.801 198.567 206.801C197.395 206.801 197.044 208.344 198.408 208.344Z" fill="#CACEDE"></path><path d="M198.404 224.955C209.493 224.955 220.578 224.955 231.668 224.955C249.25 224.955 266.833 224.955 284.416 224.955C288.453 224.955 292.49 224.955 296.527 224.955C297.69 224.955 298.062 223.441 296.694 223.441C285.604 223.441 274.519 223.441 263.43 223.441C245.847 223.441 228.264 223.441 210.682 223.441C206.645 223.441 202.608 223.441 198.571 223.441C197.407 223.437 197.04 224.955 198.404 224.955Z" fill="#CACEDE"></path><path d="M171.552 229.97C179.332 222.19 179.332 209.576 171.552 201.796C163.772 194.016 151.158 194.016 143.378 201.796C135.597 209.576 135.597 222.19 143.378 229.97C151.158 237.75 163.772 237.75 171.552 229.97Z" fill="#1BA94C"></path><path d="M164.882 210.382C164.248 209.826 163.265 209.882 162.703 210.513L155.793 218.22L153.591 216.043C153.047 215.506 152.159 215.506 151.615 216.043L151.408 216.249C150.864 216.786 150.864 217.664 151.408 218.201L154.848 221.602C155.363 222.111 156.186 222.129 156.734 221.672C156.852 221.597 156.965 221.513 157.065 221.405L165.019 212.531C165.576 211.905 165.515 210.938 164.882 210.382Z" fill="white"></path><path d="M316.633 165.717C316.633 180.089 316.633 194.456 316.633 208.828C316.633 228.295 316.633 247.759 316.633 267.227C316.633 268.728 316.708 270.255 316.633 271.756C316.487 274.721 314.448 275.347 312.104 275.347C306.278 275.347 300.452 275.347 294.625 275.347C273.039 275.347 251.453 275.347 229.866 275.347C214.861 275.347 199.822 275.047 184.821 275.347C184.579 275.351 184.333 275.347 184.091 275.347C182.969 275.347 182.523 276.748 183.895 276.748C196.861 276.748 209.823 276.748 222.789 276.748C245.08 276.748 267.371 276.748 289.667 276.748C296.494 276.748 303.325 276.748 310.152 276.748C311.178 276.748 312.225 276.802 313.251 276.748C316.862 276.556 318.672 273.858 318.672 270.551C318.672 253.097 318.672 235.64 318.672 218.186C318.672 200.95 318.672 183.713 318.672 166.472C318.672 166.164 318.672 165.855 318.672 165.546C318.668 164.533 316.633 164.862 316.633 165.717Z" fill="#5D7183"></path><path d="M119.044 179.743C119.044 170.359 119.044 160.98 119.044 151.596C119.044 131.59 119.044 111.58 119.044 91.5746C119.044 72.8825 119.044 54.1946 119.044 35.5025C119.044 30.4646 119.044 25.4225 119.044 20.3845C119.044 19.5963 119.002 18.7914 119.044 18.0032C119.181 15.455 120.966 14.4666 123.152 14.4666C133.853 14.4666 144.555 14.4666 155.256 14.4666C174.974 14.4666 194.688 14.4666 214.406 14.4666C234.566 14.4666 254.73 14.4666 274.891 14.4666C286.927 14.4666 298.967 14.4666 311.003 14.4666C311.728 14.4666 312.492 14.3957 313.217 14.4666C316.403 14.7752 316.633 17.5278 316.633 19.9508C316.633 27.0823 316.633 34.2097 316.633 41.3412C316.633 59.7205 316.633 78.0956 316.633 96.4749C316.633 97.6885 316.633 98.898 316.633 100.112C316.633 101.125 318.668 100.796 318.668 99.9364C318.668 84.9602 318.668 69.984 318.668 55.0037C318.668 45.5909 318.668 36.1823 318.668 26.7695C318.668 24.2339 318.668 21.6982 318.668 19.1626C318.668 16.0014 317.279 13.2697 313.705 13.0612C311.395 12.9235 309.034 13.0612 306.72 13.0612C300.627 13.0612 294.529 13.0612 288.436 13.0612C269.365 13.0612 250.293 13.0612 231.226 13.0612C210.206 13.0612 189.187 13.0612 168.168 13.0612C154.426 13.0612 140.68 13.0612 126.939 13.0612C123.498 13.0612 118.969 12.4231 117.359 16.4142C116.913 17.5194 117.009 18.7205 117.009 19.8841C117.009 21.7316 117.009 23.5791 117.009 25.4266C117.009 41.7416 117.009 58.0565 117.009 74.3756C117.009 95.5157 117.009 116.652 117.009 137.792C117.009 151.175 117.009 164.554 117.009 177.937C117.009 178.596 117.009 179.255 117.009 179.914C117.009 180.927 119.044 180.598 119.044 179.743Z" fill="var(--color-text-dark-faded)"></path><path d="M326.413 160.275L163.301 178.5C160.878 178.771 158.693 177.023 158.422 174.6L153.117 127.153C152.846 124.73 154.593 122.545 157.016 122.273L320.128 104.048C322.551 103.777 324.736 105.525 325.007 107.948L330.308 155.395C330.583 157.818 328.836 160.004 326.413 160.275Z" fill="var(--color-white)"></path><path d="M326.55 159.724C317.613 160.721 308.671 161.722 299.734 162.719C280.316 164.887 260.898 167.056 241.481 169.229C222.78 171.318 204.08 173.408 185.379 175.497C179.632 176.139 173.89 176.782 168.143 177.424C164.677 177.812 160.069 179.117 159.393 174.033C158.401 166.526 157.708 158.961 156.87 151.433C155.982 143.476 154.935 135.519 154.201 127.545C153.742 122.557 157.737 122.732 161.211 122.344C166.787 121.723 172.367 121.097 177.943 120.476C196.661 118.387 215.373 116.293 234.091 114.204C253.571 112.027 273.055 109.85 292.536 107.673C299.062 106.943 305.593 106.213 312.12 105.483C314.685 105.195 317.396 104.611 319.982 104.603C323.977 104.595 324.031 108.486 324.352 111.359C324.803 115.38 325.253 119.404 325.699 123.425C326.75 132.816 327.797 142.204 328.848 151.596C329.144 154.228 330.404 159.049 326.55 159.724C325.599 159.891 324.882 161.076 326.275 160.834C329.219 160.317 331.513 158.302 331.321 155.129C331.288 154.591 331.2 154.053 331.142 153.519C330.729 149.811 330.312 146.104 329.899 142.396C328.794 132.525 327.693 122.649 326.588 112.777C326.358 110.721 326.488 107.885 325.474 106.004C324.219 103.681 321.767 103.331 319.419 103.594C315.323 104.053 311.228 104.507 307.132 104.966C289.337 106.955 271.541 108.945 253.746 110.93C233.027 113.244 212.308 115.559 191.593 117.874C180.283 119.137 168.944 120.242 157.654 121.665C154.547 122.057 151.907 124.004 152.111 127.424C152.237 129.497 152.574 131.574 152.804 133.638C153.921 143.626 155.035 153.615 156.153 163.599C156.532 166.994 156.912 170.388 157.291 173.783C157.658 177.049 159.656 179.342 163.213 179.05C166.183 178.804 169.152 178.387 172.113 178.058C188.745 176.198 205.381 174.342 222.013 172.482C242.978 170.138 263.939 167.798 284.904 165.455C298.049 163.987 311.194 162.519 324.34 161.046C324.986 160.976 325.633 160.9 326.275 160.83C327.251 160.721 327.947 159.566 326.55 159.724Z" fill="#5D7183"></path><path d="M225.841 135.315C245.276 133.142 264.71 130.973 284.145 128.8C286.893 128.492 289.637 128.187 292.386 127.879C293.432 127.762 294 126.44 292.615 126.594C273.181 128.767 253.746 130.936 234.312 133.108C231.563 133.417 228.819 133.721 226.071 134.03C225.024 134.147 224.457 135.469 225.841 135.315Z" fill="#5D7183"></path><path d="M227.722 151.972C247.448 149.765 267.179 147.563 286.905 145.357C289.708 145.044 292.506 144.732 295.309 144.419C296.46 144.289 296.831 142.709 295.467 142.863C275.741 145.069 256.01 147.271 236.284 149.478C233.481 149.79 230.683 150.103 227.88 150.416C226.729 150.541 226.358 152.122 227.722 151.972Z" fill="#5D7183"></path><path d="M200.196 161.576C207.976 153.795 207.976 141.181 200.196 133.401C192.416 125.621 179.802 125.621 172.022 133.401C164.242 141.181 164.242 153.795 172.022 161.576C179.802 169.356 192.416 169.356 200.196 161.576Z" fill="#1BA94C"></path><path d="M192.882 141.382C192.249 140.826 191.266 140.882 190.703 141.513L183.794 149.22L181.591 147.043C181.048 146.506 180.159 146.506 179.616 147.043L179.408 147.249C178.864 147.786 178.864 148.664 179.408 149.201L182.848 152.602C183.364 153.111 184.186 153.129 184.734 152.672C184.852 152.597 184.966 152.513 185.065 152.405L193.019 143.531C193.577 142.905 193.515 141.938 192.882 141.382Z" fill="white"></path><path d="M119.185 165.717C119.185 180.089 119.185 194.456 119.185 208.828C119.185 228.295 119.185 247.759 119.185 267.227C119.185 268.728 119.11 270.255 119.185 271.756C119.331 274.721 121.371 275.347 123.715 275.347C129.541 275.347 135.367 275.347 141.193 275.347C162.779 275.347 184.366 275.347 205.952 275.347C220.958 275.347 235.996 275.047 250.998 275.347C251.24 275.351 251.486 275.347 251.727 275.347C252.849 275.347 253.296 276.748 251.923 276.748C238.957 276.748 225.996 276.748 213.03 276.748C190.738 276.748 168.447 276.748 146.152 276.748C139.325 276.748 132.493 276.748 125.666 276.748C124.64 276.748 123.594 276.802 122.568 276.748C118.956 276.556 117.146 273.858 117.146 270.551C117.146 253.097 117.146 235.64 117.146 218.186C117.146 200.95 117.146 183.713 117.146 166.472C117.146 166.164 117.146 165.855 117.146 165.546C117.15 164.533 119.185 164.862 119.185 165.717Z" fill="var(--color-text-dark-faded)"></path><path d="M383.538 276.476C385.737 281.49 363.064 268.698 363.064 268.698C363.064 268.698 355.78 285.607 350.783 284.798C350.783 284.798 337.066 254.574 333.533 244.277C330 233.98 322.515 202.417 322.515 202.417L338.892 198.255L355.269 194.092C355.269 194.092 363.195 226.164 366.685 236.475C370.176 246.791 381.925 272.801 383.538 276.476Z" fill="var(--color-shade-light)"></path><path d="M382.015 271.332C384.049 276.05 361.295 264.058 361.295 264.058C361.295 264.058 357.273 279.515 352.786 278.694C352.786 278.694 340.11 250.244 336.813 240.566C333.514 230.889 326.403 201.268 326.403 201.268L341.016 197.588L355.629 193.908C355.629 193.908 363.143 224.009 366.401 233.701C369.663 243.39 380.523 267.872 382.015 271.332Z" fill="var(--color-white)"></path><path d="M366.144 236.716C367.962 242.042 370.181 247.238 372.373 252.417C374.78 258.105 377.257 263.764 379.761 269.41C380.603 271.309 381.447 273.205 382.292 275.102C382.516 275.608 382.776 276.112 382.968 276.63C383.034 276.81 383.117 276.987 383.105 277.183C383.098 277.299 383.155 277.186 383.108 277.209C382.793 277.361 381.963 277.089 381.596 276.989C380.745 276.762 379.912 276.452 379.092 276.128C376.982 275.298 374.927 274.324 372.893 273.324C369.719 271.76 366.586 270.105 363.504 268.367C363.199 268.194 362.672 268.277 362.518 268.631C361.378 271.273 360.061 273.858 358.623 276.351C357.514 278.273 356.317 280.175 354.865 281.861C353.969 282.902 352.536 284.586 350.982 284.382C351.107 284.47 351.23 284.557 351.355 284.647C347.829 276.878 344.379 269.074 341.013 261.234C340.796 260.725 339.661 261.052 339.871 261.539C342.123 266.782 344.419 272.006 346.741 277.219C347.557 279.052 348.378 280.884 349.203 282.715C349.501 283.375 349.747 284.373 350.208 284.94C350.726 285.579 351.994 285.163 352.637 284.865C353.739 284.359 354.659 283.488 355.468 282.601C357.618 280.246 359.262 277.398 360.761 274.603C361.785 272.697 362.755 270.75 363.611 268.764C363.282 268.851 362.953 268.939 362.624 269.029C365.401 270.594 368.225 272.087 371.072 273.517C373.234 274.603 375.417 275.66 377.652 276.587C379.16 277.212 380.854 277.983 382.514 278.056C383.512 278.101 384.519 277.64 384.176 276.497C383.751 275.078 382.935 273.683 382.334 272.333C379.856 266.761 377.394 261.179 374.991 255.577C372.281 249.26 369.509 242.922 367.286 236.411C367.106 235.886 365.966 236.203 366.144 236.716Z" fill="#39424E"></path><path d="M296.945 278.345C303.188 278.451 316.955 269.438 316.955 269.438C316.955 269.438 324.965 276.219 330.113 284.829C330.113 284.829 342.125 253.888 345.079 243.409C348.033 232.93 353.749 201.001 353.749 201.001L337.166 197.758L320.583 194.516C320.583 194.516 314.457 226.977 311.546 237.468C308.632 247.959 296.945 278.345 296.945 278.345Z" fill="var(--color-shade-light)"></path><path d="M298.988 274.662C304.309 274.613 317.889 265.082 317.889 265.082C317.889 265.082 323.503 269.571 327.911 275.783C327.911 275.783 338.093 250.381 340.862 240.37C343.631 230.359 349.274 199.941 349.274 199.941L335.214 197.264L321.155 194.587C321.155 194.587 314.798 225.424 312.064 235.442C309.33 245.464 298.988 274.662 298.988 274.662Z" fill="var(--color-white)"></path><path d="M311.425 235.77C309.73 242.362 307.322 248.782 305.014 255.177C302.71 261.556 300.341 267.908 297.935 274.246C297.425 275.589 296.914 276.935 296.398 278.276C296.263 278.628 296.609 278.761 296.895 278.763C298.867 278.77 300.821 278.134 302.651 277.451C304.981 276.58 307.227 275.492 309.425 274.331C312.123 272.905 314.779 271.368 317.335 269.698C317.063 269.722 316.789 269.743 316.517 269.767C321.599 274.083 326.15 279.38 329.593 285.08C329.803 285.428 330.534 285.227 330.662 284.893C334.803 274.227 338.861 263.519 342.622 252.711C343.698 249.617 344.767 246.514 345.658 243.362C345.812 242.82 344.641 242.948 344.502 243.447C342.714 249.754 340.377 255.922 338.126 262.074C335.822 268.362 333.46 274.627 331.064 280.88C330.567 282.173 330.071 283.467 329.569 284.758C329.926 284.697 330.281 284.635 330.638 284.572C327.155 278.806 322.538 273.468 317.397 269.102C317.172 268.913 316.787 269.034 316.579 269.171C314.18 270.739 311.69 272.177 309.162 273.525C307.121 274.61 305.04 275.634 302.892 276.486C301.034 277.224 299.026 277.928 297.001 277.921C297.167 278.084 297.332 278.245 297.498 278.408C301.663 267.577 305.752 256.703 309.493 245.717C310.621 242.404 311.719 239.077 312.591 235.683C312.724 235.137 311.555 235.267 311.425 235.77Z" fill="#39424E"></path><path d="M374.473 227.749C393.338 208.884 393.338 178.298 374.473 159.434C355.609 140.569 325.023 140.569 306.158 159.434C287.293 178.298 287.293 208.884 306.158 227.749C325.023 246.614 355.609 246.614 374.473 227.749Z" fill="#3F94BD"></path><path d="M373.368 225.66C391.688 207.34 391.714 177.666 373.428 159.379C355.142 141.093 325.467 141.12 307.147 159.439C288.828 177.758 288.801 207.433 307.087 225.72C325.374 244.006 355.049 243.979 373.368 225.66Z" fill="#88CFF1"></path><path d="M389.2 193.546C389.167 183.45 386.059 173.541 380.187 165.311C374.478 157.31 366.347 151.126 357.107 147.775C337.927 140.824 315.834 146.819 302.76 162.454C289.604 178.191 287.799 201.18 298.399 218.755C303.472 227.162 311.097 233.921 320.034 237.979C329.314 242.194 339.852 243.341 349.84 241.366C369.561 237.469 385.328 221.228 388.566 201.379C388.992 198.792 389.193 196.171 389.2 193.546C389.202 192.95 388.043 193.121 388.043 193.634C388.01 203.569 384.967 213.348 379.187 221.448C373.61 229.264 365.704 235.342 356.672 238.627C337.762 245.505 316.051 239.396 303.368 223.827C290.796 208.394 289.133 186.127 299.31 169.007C304.267 160.666 311.785 153.933 320.618 149.922C329.723 145.788 340.065 144.679 349.854 146.682C369.183 150.636 384.43 166.768 387.469 186.229C387.852 188.682 388.034 191.155 388.043 193.636C388.046 194.232 389.202 194.059 389.2 193.546Z" fill="#39424E"></path><path d="M340.316 232.426C361.764 232.426 379.151 215.039 379.151 193.591C379.151 172.143 361.764 154.756 340.316 154.756C318.868 154.756 301.48 172.143 301.48 193.591C301.48 215.039 318.868 232.426 340.316 232.426Z" fill="var(--color-bg)"></path><path d="M379.73 193.546C379.662 177.162 369.244 162.208 353.787 156.65C338.31 151.086 320.497 155.96 309.983 168.586C299.423 181.267 297.99 199.752 306.525 213.89C315.049 228.004 331.92 235.283 348.049 232.069C363.949 228.903 376.67 215.775 379.236 199.752C379.565 197.699 379.721 195.625 379.73 193.546C379.733 192.95 378.576 193.121 378.574 193.634C378.508 209.543 368.513 224.206 353.501 229.702C338.369 235.241 320.975 230.371 310.787 217.939C300.641 205.556 299.267 187.655 307.436 173.879C315.656 160.013 332.119 152.741 347.907 155.955C363.374 159.103 375.592 171.99 378.089 187.544C378.413 189.561 378.567 191.595 378.574 193.638C378.576 194.232 379.733 194.059 379.73 193.546Z" fill="var(--color-text-dark-faded)"></path><image x="316" y="169" width="50" height="50" href="https://hrcdn.net/s3_pub/hr-assets/dashboard/ProblemSolving.svg"></image><path d="M376.143 240.832C376.89 240.832 377.495 240.227 377.495 239.48C377.495 238.733 376.89 238.127 376.143 238.127C375.396 238.127 374.791 238.733 374.791 239.48C374.791 240.227 375.396 240.832 376.143 240.832Z" stroke="#010202" stroke-width="0.6922" stroke-miterlimit="10" stroke-linecap="round"></path><path d="M348.2 138.302C348.947 138.302 349.553 137.697 349.553 136.95C349.553 136.203 348.947 135.598 348.2 135.598C347.454 135.598 346.848 136.203 346.848 136.95C346.848 137.697 347.454 138.302 348.2 138.302Z" fill="#DB2644"></path><path d="M399.378 243.139C400.125 243.139 400.73 242.534 400.73 241.787C400.73 241.04 400.125 240.435 399.378 240.435C398.631 240.435 398.025 241.04 398.025 241.787C398.025 242.534 398.631 243.139 399.378 243.139Z" fill="#DB2644"></path><path d="M432.314 136.591C433.061 136.591 433.666 135.986 433.666 135.239C433.666 134.492 433.061 133.886 432.314 133.886C431.567 133.886 430.961 134.492 430.961 135.239C430.961 135.986 431.567 136.591 432.314 136.591Z" fill="#31D4D2"></path><path d="M283.151 219.39C284.012 219.39 284.711 218.692 284.711 217.83C284.711 216.968 284.012 216.27 283.151 216.27C282.289 216.27 281.59 216.968 281.59 217.83C281.59 218.692 282.289 219.39 283.151 219.39Z" stroke="#010202" stroke-width="0.6922" stroke-miterlimit="10" stroke-linecap="round"></path><path d="M276.285 263.494C276.745 263.494 277.117 263.122 277.117 262.662C277.117 262.203 276.745 261.83 276.285 261.83C275.826 261.83 275.453 262.203 275.453 262.662C275.453 263.122 275.826 263.494 276.285 263.494Z" fill="#0061FF"></path><path d="M278.678 183.92C278.678 184.752 278.678 185.584 278.574 186.416C278.574 186.624 278.47 186.728 278.366 186.832C277.742 187.352 277.013 187.768 276.285 188.185C275.557 188.601 274.829 189.017 273.997 189.329C273.893 189.433 273.685 189.433 273.477 189.329C272.749 189.017 271.916 188.601 271.188 188.185C270.46 187.768 269.732 187.352 269.108 186.832C269.004 186.728 268.9 186.624 268.9 186.416C268.796 185.584 268.796 184.752 268.796 183.92C268.796 183.088 268.796 182.255 268.9 181.423C268.9 181.423 268.9 181.423 268.9 181.319C268.9 181.215 269.004 181.007 269.108 180.903C269.108 180.903 269.212 180.903 269.212 180.799C269.836 180.279 270.564 179.863 271.292 179.447C272.02 179.031 272.749 178.615 273.581 178.303C273.685 178.303 273.893 178.303 273.997 178.303C274.725 178.615 275.557 179.031 276.285 179.447C277.013 179.863 277.742 180.279 278.366 180.799C278.366 180.799 278.366 180.799 278.47 180.799C278.574 180.903 278.678 181.007 278.678 181.215C278.678 181.215 278.678 181.215 278.678 181.319C278.678 182.255 278.678 183.088 278.678 183.92Z" fill="#00ACE0"></path><path d="M371.046 223.031C371.046 224.903 370.942 226.88 370.942 228.752" stroke="white" stroke-width="0.6922" stroke-miterlimit="10" stroke-linecap="round"></path><path d="M368.238 226.047C370.11 226.047 372.086 225.943 373.959 225.943" stroke="white" stroke-width="0.6922" stroke-miterlimit="10" stroke-linecap="round"></path><path d="M239.254 225.943C239.254 227.816 239.15 229.792 239.15 231.665" stroke="#010202" stroke-width="0.6922" stroke-miterlimit="10" stroke-linecap="round"></path><path d="M236.342 228.856C238.214 228.856 240.19 228.752 242.063 228.752" stroke="#010202" stroke-width="0.6922" stroke-miterlimit="10" stroke-linecap="round"></path><path d="M390.493 216.582C390.493 217.83 390.389 218.974 390.389 220.222" stroke="#DB2644" stroke-width="0.6922" stroke-miterlimit="10" stroke-linecap="round"></path><path d="M388.725 218.454C389.973 218.454 391.118 218.35 392.366 218.35" stroke="#DB2644" stroke-width="0.6922" stroke-miterlimit="10" stroke-linecap="round"></path><path d="M284.9 244.756C285.628 244.756 287.188 244.756 288.749 245.589C291.765 247.253 292.389 250.582 292.493 250.998C293.429 249.749 294.366 248.397 295.302 247.149C294.99 246.421 294.158 245.069 292.493 244.132C288.957 242.26 285.108 244.652 284.9 244.756Z" fill="#FF9CE4"></path><path d="M271.917 228.232C271.605 228.44 269.732 229.688 269.42 232.08C269.212 234.057 270.148 236.033 271.917 237.177C271.813 236.865 271.605 234.785 272.957 232.913C274.309 231.144 276.285 230.832 276.702 230.832C275.037 229.896 273.477 229.064 271.917 228.232Z" fill="#0061FF"></path><path d="M389.855 257.938C389.855 258.458 389.959 259.811 390.895 260.955C392.143 262.515 394.432 263.139 396.72 262.515C396.824 261.475 396.824 260.435 396.928 259.395C396.616 259.499 395.16 259.915 393.6 259.083C391.831 258.146 391.519 256.482 391.415 256.17C390.999 256.794 390.375 257.418 389.855 257.938Z" fill="#2AC59F"></path><path d="M301.619 144.08C302.451 144.808 303.387 145.641 304.219 146.369C304.739 146.473 306.404 146.681 308.068 145.641C310.564 144.08 310.668 141.168 310.668 140.856C309.42 140.544 308.068 140.128 306.82 139.816C306.82 140.232 306.716 141.48 305.779 142.624C304.219 144.496 301.723 144.08 301.619 144.08Z" fill="#31D4D2"></path><path d="M393.524 172.79C393.42 172.27 393.316 170.397 394.356 168.733C396.229 165.924 399.869 166.132 399.973 166.132C399.973 167.277 399.973 168.317 399.973 169.461C399.453 169.357 398.309 169.045 396.957 169.461C394.564 170.189 393.628 172.478 393.524 172.79Z" fill="#097BBF"></path><path d="M401.704 197.026C402.016 197.026 402.952 197.026 403.784 197.65C404.72 198.482 405.136 199.834 404.824 201.187C405.76 200.666 406.592 200.25 407.529 199.73C407.737 198.17 407.217 196.714 406.072 195.882C404.824 194.945 403.472 195.049 403.16 195.153C402.64 195.778 402.12 196.402 401.704 197.026Z" fill="#2AC59F"></path><path d="M376.276 143.976C376.588 143.976 377.524 143.976 378.356 144.6C379.292 145.432 379.709 146.785 379.396 148.137C380.333 147.617 381.165 147.201 382.101 146.681C382.309 145.12 381.789 143.664 380.645 142.832C379.396 141.896 378.044 142 377.732 142.104C377.212 142.728 376.692 143.352 376.276 143.976Z" fill="#F8D47B"></path></svg>